<svg xmlns="http://www.w3.org/2000/svg" width="400" height="400"><g style="fill:#000;fill-opacity:1"><path d="M94.853 9.055C40.269 20.262 40.004 20.733 51.766 85.659c5.476 30.231 11.286 70.664 12.91 89.851l2.953 34.884-21.125 7.639c-95.777 34.634-30.303 182.095 80.765 181.899 71.229-.125 190.771-51.283 261.652-111.974 26.135-22.377 3.986-50.458-39.798-50.458h-19.04l4.175-60.938c2.295-33.515 6.702-69.375 9.792-79.687 13.707-45.745 10.482-73.762-9.675-84.061C309.43.068 150.751-2.422 94.853 9.055" style="fill:#000;fill-opacity:1;fill-rule:evenodd;stroke:none" transform="matrix(.92513 0 0 .89144 14.828 18.484)"/></g><path style="fill:#aea79f;fill-opacity:1;stroke:#aea79f;stroke-width:.35136187;stroke-opacity:.50196081" d="M156.42 293.1c-17.358-1.199-33.304-6.188-46.439-14.53-8.412-5.344-16.91-12.973-22.943-20.597l-2.48-3.135-.53-8.275c-.29-4.551-.525-8.953-.52-9.782l.008-1.508 1.207 1.696c2.427 3.41 7.877 9.596 11.322 12.851 16.354 15.452 38.096 23.737 65.04 24.786 34.854 1.356 75.804-8.478 123.049-29.55 10.374-4.628 26.696-12.776 33.659-16.804l2.627-1.52-.195 1.82a208.513 208.513 0 0 0-.41 4.48l-.213 2.657-6.106 4.003c-7.957 5.217-16.12 10.177-23.558 14.314-50.821 28.264-96.53 41.647-133.518 39.094z"/></svg>